<svg width="298" height="298" viewBox="0 0 298 298" fill="none" xmlns="http://www.w3.org/2000/svg">
<g filter="url(#filter0_d_17_230)">
<rect x="32" y="32" width="234" height="234" rx="20" fill="#1C1D29"/>
<rect x="31" y="31" width="236" height="236" rx="21" stroke="url(#paint0_linear_17_230)" stroke-width="2"/>
</g>
<rect x="50" y="50" width="197" height="197" rx="15" fill="white"/>
<g filter="url(#filter1_d_17_230)">
<mask id="path-4-inside-1_17_230" fill="white">
<path d="M232.073 50.0664C240.358 50.0664 247.073 56.7821 247.073 65.0664V232.073C247.073 240.358 240.358 247.073 232.073 247.073H65.0664C56.7821 247.073 50.0664 240.358 50.0664 232.073V65.0664C50.0664 56.7821 56.7821 50.0664 65.0664 50.0664H232.073ZM193.676 102.739C190.339 91.7145 178.696 85.4823 167.671 88.8193L118.669 103.652C110.906 106.002 105.519 112.469 104.176 119.939C103.195 123.44 103.115 127.243 104.136 131.007L121.513 195.113C124.526 206.231 135.982 212.801 147.1 209.787C158.217 206.774 164.787 195.318 161.773 184.2L158.321 171.468L174.48 166.577C185.505 163.24 191.737 151.597 188.4 140.572C186.864 135.496 183.565 131.436 179.378 128.858L179.756 128.744C190.781 125.407 197.013 113.764 193.676 102.739Z"/>
</mask>
<path d="M232.073 50.0664C240.358 50.0664 247.073 56.7821 247.073 65.0664V232.073C247.073 240.358 240.358 247.073 232.073 247.073H65.0664C56.7821 247.073 50.0664 240.358 50.0664 232.073V65.0664C50.0664 56.7821 56.7821 50.0664 65.0664 50.0664H232.073ZM193.676 102.739C190.339 91.7145 178.696 85.4823 167.671 88.8193L118.669 103.652C110.906 106.002 105.519 112.469 104.176 119.939C103.195 123.44 103.115 127.243 104.136 131.007L121.513 195.113C124.526 206.231 135.982 212.801 147.1 209.787C158.217 206.774 164.787 195.318 161.773 184.2L158.321 171.468L174.48 166.577C185.505 163.24 191.737 151.597 188.4 140.572C186.864 135.496 183.565 131.436 179.378 128.858L179.756 128.744C190.781 125.407 197.013 113.764 193.676 102.739Z" fill="url(#paint1_linear_17_230)"/>
<path d="M193.676 102.739L194.633 102.45L194.633 102.45L193.676 102.739ZM167.671 88.8193L167.381 87.8622L167.381 87.8622L167.671 88.8193ZM118.669 103.652L118.959 104.609L118.959 104.609L118.669 103.652ZM104.176 119.939L105.139 120.209L105.152 120.163L105.16 120.116L104.176 119.939ZM104.136 131.007L105.101 130.745L105.101 130.745L104.136 131.007ZM121.513 195.113L120.548 195.375L120.548 195.375L121.513 195.113ZM147.1 209.787L147.361 210.752L147.361 210.752L147.1 209.787ZM161.773 184.2L162.739 183.939L162.739 183.939L161.773 184.2ZM158.321 171.468L158.032 170.511L157.102 170.792L157.356 171.729L158.321 171.468ZM174.48 166.577L174.77 167.534L174.77 167.534L174.48 166.577ZM188.4 140.572L189.358 140.283V140.283L188.4 140.572ZM179.378 128.858L179.089 127.901L176.961 128.545L178.854 129.71L179.378 128.858ZM179.756 128.744L180.045 129.701L180.046 129.701L179.756 128.744ZM232.073 50.0664V51.0664C239.805 51.0664 246.073 57.3344 246.073 65.0664H247.073H248.073C248.073 56.2299 240.91 49.0664 232.073 49.0664V50.0664ZM247.073 65.0664H246.073V232.073H247.073H248.073V65.0664H247.073ZM247.073 232.073H246.073C246.073 239.805 239.805 246.073 232.073 246.073V247.073V248.073C240.91 248.073 248.073 240.91 248.073 232.073H247.073ZM232.073 247.073V246.073H65.0664V247.073V248.073H232.073V247.073ZM65.0664 247.073V246.073C57.3344 246.073 51.0664 239.805 51.0664 232.073H50.0664H49.0664C49.0664 240.91 56.2299 248.073 65.0664 248.073V247.073ZM50.0664 232.073H51.0664V65.0664H50.0664H49.0664V232.073H50.0664ZM50.0664 65.0664H51.0664C51.0664 57.3344 57.3344 51.0664 65.0664 51.0664V50.0664V49.0664C56.2299 49.0664 49.0664 56.2299 49.0664 65.0664H50.0664ZM65.0664 50.0664V51.0664H232.073V50.0664V49.0664H65.0664V50.0664ZM193.676 102.739L194.633 102.45C191.136 90.8962 178.935 84.3652 167.381 87.8622L167.671 88.8193L167.961 89.7765C178.457 86.5994 189.542 92.5328 192.719 103.029L193.676 102.739ZM167.671 88.8193L167.381 87.8622L118.379 102.695L118.669 103.652L118.959 104.609L167.961 89.7764L167.671 88.8193ZM118.669 103.652L118.379 102.695C110.243 105.158 104.598 111.937 103.192 119.763L104.176 119.939L105.16 120.116C106.439 113.002 111.569 106.846 118.959 104.609L118.669 103.652ZM104.176 119.939L103.213 119.67C102.184 123.339 102.102 127.326 103.171 131.268L104.136 131.007L105.101 130.745C104.129 127.16 104.205 123.541 105.139 120.209L104.176 119.939ZM104.136 131.007L103.171 131.268L120.548 195.375L121.513 195.113L122.478 194.852L105.101 130.745L104.136 131.007ZM121.513 195.113L120.548 195.375C123.706 207.025 135.711 213.91 147.361 210.752L147.1 209.787L146.838 208.822C136.254 211.691 125.347 205.436 122.478 194.852L121.513 195.113ZM147.1 209.787L147.361 210.752C159.012 207.594 165.896 195.589 162.739 183.939L161.773 184.2L160.808 184.462C163.677 195.046 157.422 205.953 146.838 208.822L147.1 209.787ZM161.773 184.2L162.739 183.939L159.286 171.206L158.321 171.468L157.356 171.729L160.808 184.462L161.773 184.2ZM158.321 171.468L158.611 172.425L174.77 167.534L174.48 166.577L174.191 165.62L158.032 170.511L158.321 171.468ZM174.48 166.577L174.77 167.534C186.324 164.037 192.854 151.836 189.358 140.283L188.4 140.572L187.443 140.862C190.62 151.358 184.687 162.443 174.191 165.62L174.48 166.577ZM188.4 140.572L189.358 140.283C187.747 134.963 184.29 130.708 179.902 128.007L179.378 128.858L178.854 129.71C182.841 132.165 185.98 136.028 187.443 140.862L188.4 140.572ZM179.378 128.858L179.667 129.816L180.045 129.701L179.756 128.744L179.466 127.787L179.089 127.901L179.378 128.858ZM179.756 128.744L180.046 129.701C191.599 126.204 198.13 114.003 194.633 102.45L193.676 102.739L192.719 103.029C195.896 113.525 189.962 124.61 179.466 127.787L179.756 128.744Z" fill="url(#paint2_linear_17_230)" mask="url(#path-4-inside-1_17_230)"/>
</g>
<line x1="182.237" y1="128.712" x2="140.237" y2="142.712" stroke="#777777" stroke-width="1.5"/>
<defs>
<filter id="filter0_d_17_230" x="0" y="0" width="298" height="298" filterUnits="userSpaceOnUse" color-interpolation-filters="sRGB">
<feFlood flood-opacity="0" result="BackgroundImageFix"/>
<feColorMatrix in="SourceAlpha" type="matrix" values="0 0 0 0 0 0 0 0 0 0 0 0 0 0 0 0 0 0 127 0" result="hardAlpha"/>
<feMorphology radius="10" operator="dilate" in="SourceAlpha" result="effect1_dropShadow_17_230"/>
<feOffset/>
<feGaussianBlur stdDeviation="10"/>
<feComposite in2="hardAlpha" operator="out"/>
<feColorMatrix type="matrix" values="0 0 0 0 0.835962 0 0 0 0 0.835962 0 0 0 0 0.835962 0 0 0 0.2 0"/>
<feBlend mode="normal" in2="BackgroundImageFix" result="effect1_dropShadow_17_230"/>
<feBlend mode="normal" in="SourceGraphic" in2="effect1_dropShadow_17_230" result="shape"/>
</filter>
<filter id="filter1_d_17_230" x="42.0664" y="46.0664" width="213.007" height="213.007" filterUnits="userSpaceOnUse" color-interpolation-filters="sRGB">
<feFlood flood-opacity="0" result="BackgroundImageFix"/>
<feColorMatrix in="SourceAlpha" type="matrix" values="0 0 0 0 0 0 0 0 0 0 0 0 0 0 0 0 0 0 127 0" result="hardAlpha"/>
<feOffset dy="4"/>
<feGaussianBlur stdDeviation="4"/>
<feComposite in2="hardAlpha" operator="out"/>
<feColorMatrix type="matrix" values="0 0 0 0 0 0 0 0 0 0 0 0 0 0 0 0 0 0 1 0"/>
<feBlend mode="normal" in2="BackgroundImageFix" result="effect1_dropShadow_17_230"/>
<feBlend mode="normal" in="SourceGraphic" in2="effect1_dropShadow_17_230" result="shape"/>
</filter>
<linearGradient id="paint0_linear_17_230" x1="255.246" y1="38.0221" x2="36.7316" y2="266" gradientUnits="userSpaceOnUse">
<stop stop-color="#7376AC"/>
<stop offset="0.528846" stop-color="#232437"/>
</linearGradient>
<linearGradient id="paint1_linear_17_230" x1="243" y1="54" x2="58" y2="242" gradientUnits="userSpaceOnUse">
<stop stop-color="#1F232B"/>
<stop offset="0.913462" stop-color="#111318"/>
</linearGradient>
<linearGradient id="paint2_linear_17_230" x1="56.5186" y1="241.911" x2="247.073" y2="50.0664" gradientUnits="userSpaceOnUse">
<stop stop-color="#21222F"/>
<stop offset="1" stop-color="#C6CCEB"/>
</linearGradient>
</defs>
</svg>
