<svg width="200" height="200" viewBox="0 0 200 200" fill="none" xmlns="http://www.w3.org/2000/svg">
<path d="M0 100C0 44.7715 44.7715 0 100 0H200V100C200 155.228 155.228 200 100 200V200C44.7715 200 0 155.228 0 100V100Z" fill="url(#paint0_linear_602_18)"/>
<path d="M146.408 101.512C146.408 111.155 144.445 119.688 140.52 127.112C136.595 134.451 131.133 140.211 124.136 144.392C117.139 148.488 109.032 150.536 99.816 150.536C90.6853 150.536 82.6213 148.488 75.624 144.392C68.712 140.211 63.2933 134.451 59.368 127.112C55.528 119.773 53.608 111.283 53.608 101.64C53.608 91.9973 55.5707 83.5067 59.496 76.168C63.4213 68.744 68.84 62.984 75.752 58.888C82.7493 54.7067 90.8133 52.616 99.944 52.616C109.16 52.616 117.224 54.7067 124.136 58.888C131.133 62.984 136.595 68.7013 140.52 76.04C144.445 83.3787 146.408 91.8693 146.408 101.512ZM124.52 101.512C124.52 95.4533 123.539 90.2907 121.576 86.024C119.613 81.672 116.797 78.344 113.128 76.04C109.544 73.736 105.192 72.584 100.072 72.584C94.952 72.584 90.5573 73.736 86.888 76.04C83.2187 78.344 80.4027 81.672 78.44 86.024C76.4773 90.2907 75.496 95.4533 75.496 101.512C75.496 107.571 76.4773 112.776 78.44 117.128C80.4027 121.48 83.2187 124.808 86.888 127.112C90.5573 129.416 94.952 130.568 100.072 130.568C105.192 130.568 109.544 129.416 113.128 127.112C116.797 124.723 119.613 121.352 121.576 117C123.539 112.648 124.52 107.485 124.52 101.512ZM133.096 157.192L95.976 115.208L109.032 103.688L146.152 145.672L133.096 157.192Z" fill="white"/>
<circle cx="160.5" cy="41.5" r="9.5" fill="white"/>
<defs>
<linearGradient id="paint0_linear_602_18" x1="189" y1="-1.35675e-05" x2="26.5" y2="180" gradientUnits="userSpaceOnUse">
<stop stop-color="#FFF7D5"/>
<stop offset="0.572115" stop-color="#FFC400"/>
<stop offset="1" stop-color="#FF6F00"/>
</linearGradient>
</defs>
</svg>
