<svg width="544" height="167" viewBox="0 0 544 167" fill="none" xmlns="http://www.w3.org/2000/svg">
<rect width="544" height="167" rx="83.5" fill="#F75658"/>
<path d="M57.5734 112V60.48H86.5334C90.9601 60.48 94.6134 61.3333 97.4934 63.04C100.373 64.6933 102.507 66.9867 103.893 69.92C105.333 72.8 106.053 76.08 106.053 79.76C106.053 83.2267 105.147 86.2667 103.333 88.88C101.573 91.4933 99.4401 93.6533 96.9334 95.36C97.5201 95.7333 97.9734 96.16 98.2934 96.64C98.6134 97.0667 98.8801 97.52 99.0934 98L105.173 112H85.0134L79.9734 100.56C79.7068 99.92 79.4134 99.4933 79.0934 99.28C78.7734 99.0133 78.3201 98.88 77.7334 98.88H76.9334V112H57.5734ZM76.9334 83.76H81.6534C84.8001 83.76 86.3734 82.4267 86.3734 79.76C86.3734 78.2667 86.0001 77.2 85.2534 76.56C84.5601 75.92 83.4668 75.6 81.9734 75.6H76.9334V83.76ZM110.073 112V60.48H151.273V74.4H129.433V79.04H148.233V93.44H129.433V98.08H151.273V112H110.073ZM164.848 112L152.848 60.48H171.728L175.648 80.16L178.608 69.2V60.48H194.368L200.128 80.24L204.528 60.48H223.328L211.408 112H194.528L188.368 91.68L181.728 112H164.848ZM251.933 112.8C246.119 112.8 241.159 111.947 237.053 110.24C232.946 108.48 229.799 105.653 227.613 101.76C225.426 97.8667 224.333 92.6933 224.333 86.24C224.333 79.7333 225.426 74.56 227.613 70.72C229.799 66.8267 232.946 64.0267 237.053 62.32C241.159 60.56 246.119 59.68 251.933 59.68C257.746 59.68 262.706 60.56 266.813 62.32C270.919 64.0267 274.066 66.8267 276.253 70.72C278.439 74.56 279.533 79.7333 279.533 86.24C279.533 92.6933 278.439 97.8667 276.253 101.76C274.066 105.653 270.919 108.48 266.813 110.24C262.706 111.947 257.746 112.8 251.933 112.8ZM251.933 96.4C254.759 96.4 256.759 95.6533 257.933 94.16C259.159 92.6133 259.773 89.9733 259.773 86.24C259.773 82.5067 259.159 79.8933 257.933 78.4C256.759 76.8533 254.759 76.08 251.933 76.08C249.106 76.08 247.079 76.8533 245.853 78.4C244.679 79.8933 244.093 82.5067 244.093 86.24C244.093 89.9733 244.679 92.6133 245.853 94.16C247.079 95.6533 249.106 96.4 251.933 96.4ZM283.511 112V60.48H312.471C316.898 60.48 320.551 61.3333 323.431 63.04C326.311 64.6933 328.444 66.9867 329.831 69.92C331.271 72.8 331.991 76.08 331.991 79.76C331.991 83.2267 331.084 86.2667 329.271 88.88C327.511 91.4933 325.378 93.6533 322.871 95.36C323.458 95.7333 323.911 96.16 324.231 96.64C324.551 97.0667 324.818 97.52 325.031 98L331.111 112H310.951L305.911 100.56C305.644 99.92 305.351 99.4933 305.031 99.28C304.711 99.0133 304.258 98.88 303.671 98.88H302.871V112H283.511ZM302.871 83.76H307.591C310.738 83.76 312.311 82.4267 312.311 79.76C312.311 78.2667 311.938 77.2 311.191 76.56C310.498 75.92 309.404 75.6 307.911 75.6H302.871V83.76ZM336.011 112V60.48H355.371V74.88L366.651 60.48H388.491L370.891 81.84L390.091 112H369.611L359.051 94.08L355.371 98.56V112H336.011ZM392.886 112V60.48H434.086V74.4H412.246V79.04H431.046V93.44H412.246V98.08H434.086V112H392.886ZM437.261 112V60.48H461.741C467.181 60.48 471.901 61.36 475.901 63.12C479.901 64.8267 482.994 67.6 485.181 71.44C487.368 75.2267 488.461 80.2667 488.461 86.56C488.461 92.5333 487.368 97.3867 485.181 101.12C483.048 104.853 479.981 107.6 475.981 109.36C472.034 111.12 467.288 112 461.741 112H437.261ZM456.621 97.28H459.501C461.421 97.28 463.074 97.0133 464.461 96.48C465.848 95.9467 466.914 94.9067 467.661 93.36C468.408 91.8133 468.781 89.5467 468.781 86.56C468.781 83.5733 468.434 81.36 467.741 79.92C467.048 78.4267 466.008 77.4667 464.621 77.04C463.288 76.56 461.581 76.32 459.501 76.32H456.621V97.28Z" fill="white"/>
</svg>
